<?xml version="1.0" encoding="UTF-8"?>
<svg id="Capa_1" xmlns="http://www.w3.org/2000/svg" viewBox="0 0 147.74 25">
  <defs>
    <style>
      .cls-1 {
        fill-rule: evenodd;
      }

      .cls-1, .cls-2 {
        fill: #fff;
      }

      .cls-3 {
        fill: #5267df;
      }
    </style>
  </defs>
  <path class="cls-2" d="M37,6.3h5.23c.75,0,1.43.16,2.06.47.63.31,1.12.74,1.48,1.27s.54,1.12.54,1.75c0,.67-.17,1.25-.49,1.75-.33.49-.76.87-1.3,1.13v.15c.7.25,1.25.64,1.66,1.18.41.54.62,1.19.62,1.95s-.2,1.38-.59,1.95c-.4.57-.95,1.02-1.59,1.31-.67.31-1.4.46-2.21.46h-5.41V6.3ZM42.04,11.75c.55,0,.99-.15,1.32-.46.33-.31.49-.69.49-1.15s-.16-.82-.48-1.13c-.32-.3-.74-.46-1.26-.46h-2.6v3.19s2.52,0,2.52,0ZM42.32,17.37c.61,0,1.09-.16,1.43-.48.34-.32.51-.73.51-1.24s-.17-.93-.52-1.25c-.35-.32-.85-.48-1.49-.48h-2.73v3.45h2.8ZM55.25,19.96c-1.31,0-2.49-.31-3.56-.92-1.05-.6-1.92-1.48-2.51-2.53-.61-1.07-.92-2.25-.92-3.53s.31-2.46.92-3.53c.59-1.05,1.46-1.93,2.51-2.53,1.07-.62,2.25-.92,3.56-.92s2.49.31,3.56.92c1.05.6,1.92,1.48,2.51,2.53.61,1.07.92,2.25.92,3.53s-.31,2.46-.92,3.53c-.59,1.05-1.46,1.93-2.51,2.53-1.06.62-2.25.92-3.56.92h0ZM55.25,17.57c.79,0,1.57-.19,2.26-.58.68-.38,1.24-.94,1.62-1.62.39-.7.59-1.49.59-2.39s-.2-1.69-.59-2.39c-.38-.68-.94-1.24-1.62-1.62-.69-.39-1.47-.59-2.26-.58-.79,0-1.56.19-2.25.58-.67.38-1.23.94-1.6,1.62-.39.7-.59,1.49-.59,2.39s.2,1.69.59,2.39c.37.68.93,1.24,1.6,1.62.69.39,1.46.59,2.25.58ZM70.6,19.96c-1.31,0-2.49-.31-3.56-.92-1.05-.6-1.92-1.48-2.51-2.53-.61-1.07-.92-2.25-.92-3.53s.31-2.46.91-3.53c.59-1.05,1.46-1.93,2.51-2.53,1.06-.62,2.25-.92,3.56-.92s2.49.31,3.56.92c1.05.6,1.92,1.48,2.51,2.53.61,1.07.92,2.25.92,3.53s-.31,2.46-.91,3.53c-.59,1.05-1.46,1.93-2.51,2.53-1.06.62-2.25.92-3.56.92ZM70.6,17.57c.79,0,1.57-.19,2.26-.58.68-.38,1.24-.94,1.61-1.62.39-.7.59-1.49.59-2.39s-.2-1.69-.59-2.39c-.38-.68-.94-1.24-1.61-1.62-.69-.39-1.47-.59-2.26-.58-.79,0-1.56.19-2.25.58-.67.38-1.23.94-1.61,1.62-.39.7-.59,1.49-.59,2.39s.2,1.69.59,2.39c.37.68.93,1.24,1.61,1.62.69.39,1.46.59,2.25.58ZM79.83,6.3h2.52v5.73h.15l4.89-5.73h3.04v.15l-4.83,5.52,5.34,7.54v.15h-3.08l-3.99-5.69-1.51,1.77v3.92h-2.52V6.3h0ZM93.78,6h3.25l3.55,9.39h.15l3.54-9.39h3.27v13.36h-2.5v-6.59l.15-2.22h-.15l-3.4,8.81h-1.96l-3.42-8.81h-.15l.15,2.22v6.59h-2.48V6h0ZM114.58,6h2.89l5.02,13.36h-2.78l-1.12-3.19h-5.11l-1.12,3.19h-2.78s5-13.36,5-13.36ZM117.77,13.86l-1.18-3.36-.49-1.61h-.15l-.49,1.61-1.19,3.36h3.49ZM124.55,6h4.87c.87,0,1.65.18,2.32.54.68.36,1.2.86,1.58,1.5.37.64.56,1.37.56,2.18,0,.86-.27,1.62-.81,2.29-.54.66-1.24,1.16-2.04,1.45l-.02.13,3.58,5.13v.15h-2.89l-3.45-5.02h-1.18v5.02h-2.52s0-13.36,0-13.36ZM129.41,12.03c.57,0,1.04-.18,1.4-.52.36-.35.54-.79.54-1.33s-.17-.94-.51-1.31c-.34-.36-.81-.54-1.39-.54h-2.37v3.7h2.33ZM136.64,6h2.52v5.73h.15l4.89-5.73h3.04v.15l-4.84,5.53,5.34,7.54v.15h-3.08l-4-5.69-1.51,1.77v3.92h-2.52V6h0Z"/>
  <g>
    <circle class="cls-3" cx="12.5" cy="12.5" r="12.5"/>
    <path class="cls-1" d="M9,9v10l3.54-3.44,3.54,3.44v-10c0-1.1-.9-2-2-2h-3.08c-1.1,0-2,.9-2,2Z"/>
  </g>
</svg>